<svg xmlns="http://www.w3.org/2000/svg" version="1.1" xmlns:xlink="http://www.w3.org/1999/xlink" xmlns:svgjs="http://svgjs.dev/svgjs" width="128" height="128" viewBox="0 0 128 128"><g transform="matrix(0.8046875,0,0,0.8046875,12.5,12.5)"><svg viewBox="0 0 200 200" data-background-color="#e65728" preserveAspectRatio="xMidYMid meet" height="128" width="128" xmlns="http://www.w3.org/2000/svg" xmlns:xlink="http://www.w3.org/1999/xlink"><g id="tight-bounds" transform="matrix(1,0,0,1,0,0)"><svg viewBox="0 0 200 200" height="200" width="200"><g><svg></svg></g><g><svg viewBox="0 0 200 200" height="200" width="200"><g><path d="M0 100c0-55.228 44.772-100 100-100 55.228 0 100 44.772 100 100 0 55.228-44.772 100-100 100-55.228 0-100-44.772-100-100zM100 188.854c49.072 0 88.854-39.781 88.854-88.854 0-49.072-39.781-88.854-88.854-88.854-49.072 0-88.854 39.781-88.854 88.854 0 49.072 39.781 88.854 88.854 88.854z" fill="#ffa458" fill-rule="nonzero" stroke="none" stroke-width="1" stroke-linecap="butt" stroke-linejoin="miter" stroke-miterlimit="10" stroke-dasharray="" stroke-dashoffset="0" font-family="none" font-weight="none" font-size="none" text-anchor="none" style="mix-blend-mode: normal" data-fill-palette-color="tertiary"></path></g><g transform="matrix(1,0,0,1,76.02365145228217,69.1)"><svg viewBox="0 0 47.95269709543568 61.8" height="61.8" width="47.95269709543568"><g><svg viewBox="0 0 47.95269709543568 61.8" height="61.8" width="47.95269709543568"><g><svg viewBox="0 0 47.95269709543568 61.8" height="61.8" width="47.95269709543568"><g><svg viewBox="0 0 47.95269709543568 61.8" height="61.8" width="47.95269709543568"><g><svg viewBox="0 0 47.95269709543568 61.8" height="61.8" width="47.95269709543568"><g transform="matrix(1,0,0,1,0,0)"><svg width="47.95269709543568" viewBox="1.1 -35.75 28.049999999999997 36.15" height="61.8" data-palette-color="#ffa458"><path d="M27.9-31.8L24.85-26.2Q24.5-26.55 23.58-27.15 22.65-27.75 21.33-28.3 20-28.85 18.45-29.28 16.9-29.7 15.3-29.7L15.3-29.7Q12.5-29.7 11.08-28.65 9.65-27.6 9.65-25.7L9.65-25.7Q9.65-24.25 10.55-23.4 11.45-22.55 13.25-21.95 15.05-21.35 17.75-20.65L17.75-20.65Q21.25-19.8 23.83-18.57 26.4-17.35 27.78-15.38 29.15-13.4 29.15-10.15L29.15-10.15Q29.15-7.3 28.1-5.28 27.05-3.25 25.2-2 23.35-0.75 21-0.18 18.65 0.4 16 0.4L16 0.4Q13.35 0.4 10.7-0.15 8.05-0.7 5.6-1.73 3.15-2.75 1.1-4.2L1.1-4.2 4.15-10.15Q4.6-9.7 5.75-8.97 6.9-8.25 8.55-7.53 10.2-6.8 12.15-6.3 14.1-5.8 16.1-5.8L16.1-5.8Q18.9-5.8 20.35-6.75 21.8-7.7 21.8-9.45L21.8-9.45Q21.8-11.05 20.65-11.95 19.5-12.85 17.45-13.53 15.4-14.2 12.6-15L12.6-15Q9.25-15.95 7-17.13 4.75-18.3 3.65-20.1 2.55-21.9 2.55-24.6L2.55-24.6Q2.55-28.25 4.28-30.73 6-33.2 8.95-34.48 11.9-35.75 15.5-35.75L15.5-35.75Q18-35.75 20.23-35.2 22.45-34.65 24.4-33.75 26.35-32.85 27.9-31.8L27.9-31.8Z" opacity="1" transform="matrix(1,0,0,1,0,0)" fill="#ffa458" class="undefined-text-0" data-fill-palette-color="primary" id="text-0"></path></svg></g></svg></g></svg></g></svg></g><g></g></svg></g></svg></g></svg></g><defs></defs></svg><rect width="200" height="200" fill="none" stroke="none" visibility="hidden"></rect></g></svg></g></svg>