<svg xmlns="http://www.w3.org/2000/svg" version="1.1" xmlns:xlink="http://www.w3.org/1999/xlink" xmlns:svgjs="http://svgjs.dev/svgjs" width="2000" height="1500" viewBox="0 0 2000 1500"><rect width="2000" height="1500" fill="#e65728"></rect><g transform="matrix(0.75,0,0,0.75,250,281.25)"><svg viewBox="0 0 512 320" data-background-color="#e65728" preserveAspectRatio="xMidYMid meet" height="1250" width="2000" xmlns="http://www.w3.org/2000/svg" xmlns:xlink="http://www.w3.org/1999/xlink"><g id="tight-bounds" transform="matrix(1,0,0,1,0,0)"><svg viewBox="0 0 512 320" height="320" width="512"><g><svg></svg></g><g><svg viewBox="0 0 512 320" height="320" width="512"><g><path xmlns="http://www.w3.org/2000/svg" d="M96 160c0-88.366 71.634-160 160-160 88.366 0 160 71.634 160 160 0 88.366-71.634 160-160 160-88.366 0-160-71.634-160-160zM256 310.644c83.198 0 150.644-67.446 150.644-150.644 0-83.198-67.446-150.644-150.644-150.644-83.198 0-150.644 67.446-150.644 150.644 0 83.198 67.446 150.644 150.644 150.644z" fill="#ffa458" fill-rule="nonzero" stroke="none" stroke-width="1" stroke-linecap="butt" stroke-linejoin="miter" stroke-miterlimit="10" stroke-dasharray="" stroke-dashoffset="0" font-family="none" font-weight="none" font-size="none" text-anchor="none" style="mix-blend-mode: normal" data-fill-palette-color="tertiary"></path></g><g transform="matrix(1,0,0,1,128,134.0627802690583)"><svg viewBox="0 0 256 51.874439461883405" height="51.874439461883405" width="256"><g><svg viewBox="0 0 256 51.874439461883405" height="51.874439461883405" width="256"><g><svg viewBox="0 0 256 51.874439461883405" height="51.874439461883405" width="256"><g><svg viewBox="0 0 256 51.874439461883405" height="51.874439461883405" width="256"><g><svg viewBox="0 0 256 51.874439461883405" height="51.874439461883405" width="256"><g transform="matrix(1,0,0,1,0,0)"><svg width="256" viewBox="1.100000023841858 -35.75 178.38999938964844 36.150001525878906" height="51.874439461883405" data-palette-color="#ffa458"><path d="M27.9-31.8L24.85-26.2Q24.5-26.55 23.58-27.15 22.65-27.75 21.33-28.3 20-28.85 18.45-29.28 16.9-29.7 15.3-29.7L15.3-29.7Q12.5-29.7 11.08-28.65 9.65-27.6 9.65-25.7L9.65-25.7Q9.65-24.25 10.55-23.4 11.45-22.55 13.25-21.95 15.05-21.35 17.75-20.65L17.75-20.65Q21.25-19.8 23.83-18.57 26.4-17.35 27.78-15.38 29.15-13.4 29.15-10.15L29.15-10.15Q29.15-7.3 28.1-5.28 27.05-3.25 25.2-2 23.35-0.75 21-0.18 18.65 0.4 16 0.4L16 0.4Q13.35 0.4 10.7-0.15 8.05-0.7 5.6-1.73 3.15-2.75 1.1-4.2L1.1-4.2 4.15-10.15Q4.6-9.7 5.75-8.97 6.9-8.25 8.55-7.53 10.2-6.8 12.15-6.3 14.1-5.8 16.1-5.8L16.1-5.8Q18.9-5.8 20.35-6.75 21.8-7.7 21.8-9.45L21.8-9.45Q21.8-11.05 20.65-11.95 19.5-12.85 17.45-13.53 15.4-14.2 12.6-15L12.6-15Q9.25-15.95 7-17.13 4.75-18.3 3.65-20.1 2.55-21.9 2.55-24.6L2.55-24.6Q2.55-28.25 4.28-30.73 6-33.2 8.95-34.48 11.9-35.75 15.5-35.75L15.5-35.75Q18-35.75 20.23-35.2 22.45-34.65 24.4-33.75 26.35-32.85 27.9-31.8L27.9-31.8ZM49.5 0.25L49.5 0.25Q45.6 0.25 42.42-1.25 39.25-2.75 36.97-5.33 34.7-7.9 33.45-11.13 32.2-14.35 32.2-17.75L32.2-17.75Q32.2-21.3 33.52-24.53 34.85-27.75 37.17-30.28 39.5-32.8 42.67-34.27 45.85-35.75 49.65-35.75L49.65-35.75Q53.5-35.75 56.67-34.2 59.85-32.65 62.1-30.05 64.35-27.45 65.6-24.25 66.85-21.05 66.85-17.65L66.85-17.65Q66.85-14.15 65.55-10.93 64.25-7.7 61.92-5.18 59.6-2.65 56.42-1.2 53.25 0.25 49.5 0.25ZM39.2-17.75L39.2-17.75Q39.2-15.45 39.9-13.3 40.6-11.15 41.92-9.47 43.25-7.8 45.17-6.83 47.1-5.85 49.55-5.85L49.55-5.85Q52.05-5.85 54-6.88 55.95-7.9 57.25-9.63 58.55-11.35 59.22-13.48 59.9-15.6 59.9-17.75L59.9-17.75Q59.9-20.05 59.17-22.18 58.45-24.3 57.12-25.98 55.8-27.65 53.87-28.63 51.95-29.6 49.55-29.6L49.55-29.6Q47-29.6 45.07-28.58 43.15-27.55 41.85-25.85 40.55-24.15 39.87-22.05 39.2-19.95 39.2-17.75ZM79.05 0L72.15 0 72.15-35.5 87.2-35.5Q89.65-35.5 91.7-34.5 93.75-33.5 95.27-31.8 96.8-30.1 97.65-28 98.5-25.9 98.5-23.7L98.5-23.7Q98.5-20.7 97.1-18 95.7-15.3 93.25-13.6 90.8-11.9 87.45-11.9L87.45-11.9 79.05-11.9 79.05 0ZM79.05-29.45L79.05-17.95 87.05-17.95Q88.3-17.95 89.3-18.65 90.3-19.35 90.9-20.68 91.5-22 91.5-23.7L91.5-23.7Q91.5-25.55 90.82-26.85 90.15-28.15 89.07-28.8 88-29.45 86.75-29.45L86.75-29.45 79.05-29.45ZM126.29-35.5L133.14-35.5 133.14 0 126.29 0 126.29-15.15 110.19-15.15 110.19 0 103.29 0 103.29-35.5 110.19-35.5 110.19-21.15 126.29-21.15 126.29-35.5ZM147.44 0L140.54 0 140.54-35.5 147.44-35.5 147.44 0ZM161.74-6.05L179.49-6.05 179.49 0 154.84 0 154.84-35.5 179.04-35.5 179.04-29.45 161.74-29.45 161.74-20.9 176.69-20.9 176.69-15.3 161.74-15.3 161.74-6.05Z" opacity="1" transform="matrix(1,0,0,1,0,0)" fill="#ffa458" class="undefined-text-0" data-fill-palette-color="primary" id="text-0"></path></svg></g></svg></g></svg></g></svg></g><g></g></svg></g></svg></g></svg></g><defs></defs></svg><rect width="512" height="320" fill="none" stroke="none" visibility="hidden"></rect></g></svg></g></svg>